0
SECTION
2
HEADER
9
$HANDSEED
5
3F
9
$INSUNITS
70
2
9
$ACADVER
1
AC1021
0
ENDSEC
0
SECTION
2
CLASSES
0
ENDSEC
0
SECTION
2
TABLES
0
TABLE
2
LTYPE
5
3D
330
0
100
AcDbSymbolTable
70
5
0
LTYPE
5
2
330
3D
100
AcDbSymbolTableRecord
100
AcDbLinetypeTableRecord
2
CONTINUOUS
3
______
70
0
72
65
73
0
40
0
0
LTYPE
5
3
330
3D
100
AcDbSymbolTableRecord
100
AcDbLinetypeTableRecord
2
DASHED
3
_ _ _ 
70
0
72
65
73
2
40
10
49
5
74
0
49
-5
74
0
0
LTYPE
5
4
330
3D
100
AcDbSymbolTableRecord
100
AcDbLinetypeTableRecord
2
DOTTED
3
. . . 
70
0
72
65
73
2
40
5
49
0
74
0
49
-5
74
0
0
LTYPE
5
6
330
3D
100
AcDbSymbolTableRecord
100
AcDbLinetypeTableRecord
2
ByBlock
3

70
0
72
65
73
0
40
0
0
LTYPE
5
7
330
3D
100
AcDbSymbolTableRecord
100
AcDbLinetypeTableRecord
2
ByLayer
3

70
0
72
65
73
0
40
0
0
ENDTAB
0
TABLE
2
LAYER
5
3E
330
0
100
AcDbSymbolTable
70
7
0
LAYER
5
5
330
3E
100
AcDbSymbolTableRecord
100
AcDbLayerTableRecord
2
0
62
7
70
0
6
CONTINUOUS
390
1
0
LAYER
5
16
330
3E
100
AcDbSymbolTableRecord
100
AcDbLayerTableRecord
2
PARCEL-BNDY
62
7
70
0
6
CONTINUOUS
390
1
0
LAYER
5
17
330
3E
100
AcDbSymbolTableRecord
100
AcDbLayerTableRecord
2
SETBACK-LINES
62
2
70
0
6
DASHED
390
1
0
LAYER
5
18
330
3E
100
AcDbSymbolTableRecord
100
AcDbLayerTableRecord
2
BLDG-FOOTPRINT
62
4
70
0
6
CONTINUOUS
390
1
0
LAYER
5
19
330
3E
100
AcDbSymbolTableRecord
100
AcDbLayerTableRecord
2
ACCESS-DRIVE
62
6
70
0
6
CONTINUOUS
390
1
0
LAYER
5
1A
330
3E
100
AcDbSymbolTableRecord
100
AcDbLayerTableRecord
2
DIMENSIONS
62
3
70
0
6
CONTINUOUS
390
1
0
LAYER
5
1B
330
3E
100
AcDbSymbolTableRecord
100
AcDbLayerTableRecord
2
TEXT-ANNO
62
7
70
0
6
CONTINUOUS
390
1
0
ENDTAB
0
TABLE
2
VPORT
5
8
330
0
100
AcDbSymbolTable
70
1
0
VPORT
5
E
330
8
100
AcDbSymbolTableRecord
100
AcDbViewportTableRecord
2
*ACTIVE
40
1000
70
0
0
ENDTAB
0
TABLE
2
STYLE
5
9
330
0
100
AcDbSymbolTable
70
1
0
STYLE
5
F
330
9
100
AcDbSymbolTableRecord
100
AcDbTextStyleTableRecord
2
standard
70
0
40
0
41
1
50
0
71
0
42
1
3
txt
4

0
ENDTAB
0
TABLE
2
VIEW
5
A
330
0
100
AcDbSymbolTable
70
0
0
ENDTAB
0
TABLE
2
UCS
5
B
330
0
100
AcDbSymbolTable
70
0
0
ENDTAB
0
TABLE
2
APPID
5
C
330
0
100
AcDbSymbolTable
70
1
0
APPID
5
10
330
C
100
AcDbSymbolTableRecord
100
AcDbRegAppTableRecord
2
ACAD
70
0
0
ENDTAB
0
TABLE
2
DIMSTYLE
5
D
330
0
100
AcDbSymbolTable
100
AcDbDimStyleTable
70
0
71
1
0
ENDTAB
0
TABLE
2
BLOCK_RECORD
5
3A
330
0
100
AcDbSymbolTable
70
2
0
BLOCK_RECORD
5
3B
330
3A
100
AcDbSymbolTableRecord
100
AcDbBlockTableRecord
2
*Model_Space
70
0
280
0
281
1
0
BLOCK_RECORD
5
3C
330
3A
100
AcDbSymbolTableRecord
100
AcDbBlockTableRecord
2
*Paper_Space
70
0
280
0
281
1
0
ENDTAB
0
ENDSEC
0
SECTION
2
BLOCKS
0
BLOCK
5
11
330
0
100
AcDbEntity
100
AcDbBlockBegin
2
*Model_Space
70
0
10
0
20
0
30
0
3
*Model_Space
1

0
ENDBLK
5
12
330
0
100
AcDbEntity
100
AcDbBlockEnd
0
BLOCK
5
13
330
0
100
AcDbEntity
100
AcDbBlockBegin
2
*Paper_Space
70
0
10
0
20
0
30
0
3
*Paper_Space
1

0
ENDBLK
5
14
330
0
100
AcDbEntity
100
AcDbBlockEnd
0
ENDSEC
0
SECTION
2
ENTITIES
0
LWPOLYLINE
5
1C
330
11
100
AcDbEntity
100
AcDbPolyline
8
PARCEL-BNDY
6
ByLayer
62
256
370
-1
90
16
70
0
10
711073.5760987268
20
1532697.5270703617
10
711073.2753623828
20
1532593.5270826996
10
710993.2803195592
20
1532594.4330258926
10
710934.0744256492
20
1532595.1036847064
10
710929.7605935062
20
1532595.5279857046
10
710925.5854842582
20
1532596.6916788868
10
710921.6738324228
20
1532598.558670612
10
710918.1433124247
20
1532601.0730611882
10
710915.0999458721
20
1532604.1595833444
10
710912.6358487877
20
1532607.7256217292
10
710910.8246786013
20
1532611.6632878592
10
710909.720783994
20
1532615.8550082142
10
710909.3575776208
20
1532620.1742183806
10
710909.5865037483
20
1532699.3836296576
10
710993.5810530307
20
1532698.432685218
10
711073.5760987268
20
1532697.5270703617
0
LWPOLYLINE
5
1D
330
11
100
AcDbEntity
100
AcDbPolyline
8
SETBACK-LINES
6
ByLayer
62
256
370
-1
90
5
70
0
10
710929.3575776208
20
1532601.0270826996
10
711053.5760987268
20
1532601.0270826996
10
711053.5760987268
20
1532691.8836296576
10
710929.3575776208
20
1532691.8836296576
10
710929.3575776208
20
1532601.0270826996
0
LWPOLYLINE
5
1E
330
11
100
AcDbEntity
100
AcDbPolyline
8
BLDG-FOOTPRINT
6
ByLayer
62
256
370
-1
90
5
70
0
10
710929.3575776208
20
1532601.0270826996
10
710998.8026087529
20
1532601.0270826996
10
710998.8026087529
20
1532670.4721138317
10
710929.3575776208
20
1532670.4721138317
10
710929.3575776208
20
1532601.0270826996
0
LINE
5
1F
330
11
100
AcDbEntity
100
AcDbLine
8
DIMENSIONS
10
710909.3575776208
20
1532593.5270826996
30
0
11
710909.3575776208
21
1532581.5270826996
31
0
0
LINE
5
20
330
11
100
AcDbEntity
100
AcDbLine
8
DIMENSIONS
10
711073.5760987268
20
1532593.5270826996
30
0
11
711073.5760987268
21
1532581.5270826996
31
0
0
LINE
5
21
330
11
100
AcDbEntity
100
AcDbLine
8
DIMENSIONS
10
710909.3575776208
20
1532581.5270826996
30
0
11
711073.5760987268
21
1532581.5270826996
31
0
0
TEXT
5
22
330
11
100
AcDbEntity
100
AcDbText
8
DIMENSIONS
10
710991.4668381738
20
1532581.5270826996
30
0
40
3
1
164.2'
50
0
72
1
11
710991.4668381738
21
1532581.5270826996
31
0
100
AcDbText
73
2
0
LINE
5
23
330
11
100
AcDbEntity
100
AcDbLine
8
DIMENSIONS
10
710909.3575776208
20
1532593.5270826996
30
0
11
710921.3575776208
21
1532593.5270826996
31
0
0
LINE
5
24
330
11
100
AcDbEntity
100
AcDbLine
8
DIMENSIONS
10
710909.3575776208
20
1532699.3836296576
30
0
11
710921.3575776208
21
1532699.3836296576
31
0
0
LINE
5
25
330
11
100
AcDbEntity
100
AcDbLine
8
DIMENSIONS
10
710921.3575776208
20
1532593.5270826996
30
0
11
710921.3575776208
21
1532699.3836296576
31
0
0
TEXT
5
26
330
11
100
AcDbEntity
100
AcDbText
8
DIMENSIONS
10
710921.3575776208
20
1532646.4553561786
30
0
40
3
1
105.9'
50
0
72
1
11
710921.3575776208
21
1532646.4553561786
31
0
100
AcDbText
73
2
0
LINE
5
27
330
11
100
AcDbEntity
100
AcDbLine
8
DIMENSIONS
10
710929.3575776208
20
1532601.0270826996
30
0
11
710929.3575776208
21
1532607.0270826996
31
0
0
LINE
5
28
330
11
100
AcDbEntity
100
AcDbLine
8
DIMENSIONS
10
710998.8026087529
20
1532601.0270826996
30
0
11
710998.8026087529
21
1532607.0270826996
31
0
0
LINE
5
29
330
11
100
AcDbEntity
100
AcDbLine
8
DIMENSIONS
10
710929.3575776208
20
1532607.0270826996
30
0
11
710998.8026087529
21
1532607.0270826996
31
0
0
TEXT
5
2A
330
11
100
AcDbEntity
100
AcDbText
8
DIMENSIONS
10
710964.0800931868
20
1532607.0270826996
30
0
40
3
1
69.4'
50
0
72
1
11
710964.0800931868
21
1532607.0270826996
31
0
100
AcDbText
73
2
0
LINE
5
2B
330
11
100
AcDbEntity
100
AcDbLine
8
DIMENSIONS
10
710929.3575776208
20
1532601.0270826996
30
0
11
710935.3575776208
21
1532601.0270826996
31
0
0
LINE
5
2C
330
11
100
AcDbEntity
100
AcDbLine
8
DIMENSIONS
10
710929.3575776208
20
1532670.4721138317
30
0
11
710935.3575776208
21
1532670.4721138317
31
0
0
LINE
5
2D
330
11
100
AcDbEntity
100
AcDbLine
8
DIMENSIONS
10
710935.3575776208
20
1532601.0270826996
30
0
11
710935.3575776208
21
1532670.4721138317
31
0
0
TEXT
5
2E
330
11
100
AcDbEntity
100
AcDbText
8
DIMENSIONS
10
710935.3575776208
20
1532635.7495982656
30
0
40
3
1
69.4'
50
0
72
1
11
710935.3575776208
21
1532635.7495982656
31
0
100
AcDbText
73
2
0
TEXT
5
2F
330
11
100
AcDbEntity
100
AcDbText
8
TEXT-ANNO
10
710909.3575776208
20
1532719.3836296576
30
0
40
4
1
PARCEL 223528013813 (co_no 15)
50
0
100
AcDbText
0
TEXT
5
30
330
11
100
AcDbEntity
100
AcDbText
8
TEXT-ANNO
10
710909.3575776208
20
1532725.3836296576
30
0
40
4
1
LAYOUT: single_family — OPTION 1
50
0
100
AcDbText
0
TEXT
5
31
330
11
100
AcDbEntity
100
AcDbText
8
TEXT-ANNO
10
710909.3575776208
20
1532731.3836296576
30
0
40
4
1
UNITS: 1
50
0
100
AcDbText
0
TEXT
5
32
330
11
100
AcDbEntity
100
AcDbText
8
TEXT-ANNO
10
710909.3575776208
20
1532737.3836296576
30
0
40
4
1
GFA: 4823 SF
50
0
100
AcDbText
0
TEXT
5
33
330
11
100
AcDbEntity
100
AcDbText
8
TEXT-ANNO
10
710909.3575776208
20
1532743.3836296576
30
0
40
4
1
LOT COVERAGE: 28.5%
50
0
100
AcDbText
0
TEXT
5
34
330
11
100
AcDbEntity
100
AcDbText
8
TEXT-ANNO
10
710909.3575776208
20
1532749.3836296576
30
0
40
4
1
SETBACK COMPLIANT: YES
50
0
100
AcDbText
0
TEXT
5
35
330
11
100
AcDbEntity
100
AcDbText
8
TEXT-ANNO
10
710909.3575776208
20
1532755.3836296576
30
0
40
4
1
CRS: EPSG:2236 (State Plane, US survey feet)
50
0
100
AcDbText
0
LINE
5
36
330
11
100
AcDbEntity
100
AcDbLine
8
TEXT-ANNO
10
711093.5760987268
20
1532699.3836296576
30
0
11
711093.5760987268
21
1532719.3836296576
31
0
0
LINE
5
37
330
11
100
AcDbEntity
100
AcDbLine
8
TEXT-ANNO
10
711093.5760987268
20
1532719.3836296576
30
0
11
711090.5760987268
21
1532713.3836296576
31
0
0
LINE
5
38
330
11
100
AcDbEntity
100
AcDbLine
8
TEXT-ANNO
10
711093.5760987268
20
1532719.3836296576
30
0
11
711096.5760987268
21
1532713.3836296576
31
0
0
TEXT
5
39
330
11
100
AcDbEntity
100
AcDbText
8
TEXT-ANNO
10
711093.5760987268
20
1532722.3836296576
30
0
40
4
1
N
50
0
72
1
11
711093.5760987268
21
1532722.3836296576
31
0
100
AcDbText
73
0
0
ENDSEC
0
SECTION
2
OBJECTS
0
DICTIONARY
5
1
330
0
100
AcDbDictionary
281
1
3
ACAD_GROUP
350
15
0
DICTIONARY
5
15
330
1
100
AcDbDictionary
281
1
0
ENDSEC
0
EOF